<mxfile host="app.diagrams.net" modified="2023-08-18T08:40:43.230Z" agent="Mozilla/5.0 (Windows NT 10.0; Win64; x64) AppleWebKit/537.36 (KHTML, like Gecko) Chrome/114.0.0.0 Safari/537.36" version="21.6.8" etag="qGfIHzEQkuljpzTFG5VC" type="github">
  <diagram name="第 1 页" id="MR_yr5TO_eKf5O_K7397">
    <mxGraphModel>
      <root>
        <mxCell id="0" />
        <mxCell id="1" parent="0" />
      </root>
    </mxGraphModel>
  </diagram>
</mxfile>
